<svg xmlns="http://www.w3.org/2000/svg" width="20" height="20" viewBox="0 0 20 20">
  <path d="M10,18 C5.581722,18 2,14.418278 2,10 C2,5.581722 5.581722,2 10,2 C14.418278,2 18,5.581722 18,10 C18,14.418278 14.418278,18 10,18 Z M10,16.9 C13.8107648,16.9 16.9,13.8107648 16.9,10 C16.9,6.18923523 13.8107648,3.1 10,3.1 C6.18923523,3.1 3.1,6.18923523 3.1,10 C3.1,13.8107648 6.18923523,16.9 10,16.9 Z M10.9870058,10.35 L10.9955339,10.3585281 L8.16710678,13.1869553 L7.46,12.4798485 L9.9,10.0398485 L9.9,6 L11,6 L11,10.35 L10.9870058,10.35 Z"/>
</svg>
