<svg xmlns="http://www.w3.org/2000/svg" width="20" height="20" viewBox="0 0 20 20">
  <path d="M13.2255744,5.67463376 C13.0904382,6.67228136 12.3918877,7.58859022 11.0633028,8.44422843 C11.0550817,8.44920368 11.0468373,8.4541736 11.0385697,8.45913817 C11.0179614,8.47328956 10.9964145,8.48695722 10.9747059,8.50060945 C10.7768319,8.62504927 10.4520992,8.83081352 10.0005079,9.11790221 L4.6,12.3714423 L4.6,15.9473516 L15.4,15.9473516 L15.4,12.3714423 L10.9416702,9.68501285 C11.325038,9.47552335 11.6750874,9.25836294 11.9918185,9.03353163 L16.5,11.75 L16.5,17.0473516 L3.5,17.0473516 L3.5,11.75 L8.96143026,8.45913817 C7.48714342,7.57384418 6.75,6.51883734 6.75,5.29411765 C6.75,3.47482671 8.20507456,2 10,2 C11.7949254,2 13.25,3.47491993 13.25,5.29411765 C13.25,5.42283086 13.2418581,5.54966957 13.2255744,5.67463376 Z M12.15,5.29411765 C12.15,4.079101 11.1840308,3.1 10,3.1 C8.81593251,3.1 7.85,4.07904471 7.85,5.29411765 C7.85,6.18520106 8.5077982,7.01370873 10,7.77895318 C11.4922018,7.01370873 12.15,6.18520106 12.15,5.29411765 Z"/>
</svg>
