<svg xmlns="http://www.w3.org/2000/svg" width="20" height="20" viewBox="0 0 20 20">
  <path d="M2,8.9081453 C2,5.36905169 5.58169231,2.5 10,2.5 C14.4183077,2.5 18,5.36905169 18,8.9081453 C18,12.4473171 14.4183077,15.3162906 10,15.3162906 C9.51507692,15.3162906 9.04023077,15.2818273 8.57907692,15.2154795 C8.11746154,15.5459679 5.45046154,17.4491871 5.19876923,17.4849007 C5.19876923,17.4849007 5.09553846,17.5256941 5.00776923,17.4731785 C4.92,17.420663 4.93592308,17.282966 4.93592308,17.282966 C4.96238462,17.0997087 5.62730769,14.7669875 5.74984615,14.3376418 C3.49738462,13.2039471 2,11.1962439 2,8.9081453 Z M5.66064741,11.1516185 C5.91923952,11.1516185 6.12953609,10.9507779 6.12953609,10.7038298 L6.12953609,7.91824033 L6.86115873,7.91824033 C7.1148275,7.91824033 7.32129482,7.71224191 7.32129482,7.45912017 C7.32129482,7.20599843 7.11490565,7 6.86115873,7 L4.46013609,7 C4.20646732,7 4,7.20599843 4,7.45912017 C4,7.71224191 4.20638917,7.91824033 4.46013609,7.91824033 L5.19175873,7.91824033 L5.19175873,10.7038298 C5.19175873,10.9507779 5.4020553,11.1516185 5.66064741,11.1516185 Z M9.77217595,11.145523 C9.87501306,11.1456015 9.97666409,11.1235602 10.0702329,11.0808945 C10.1994898,11.0214238 10.3237453,10.8573909 10.1810469,10.4141348 L9.05993405,7.46334016 C8.98077001,7.23835175 8.74077715,7.00695518 8.4345147,7.00007815 C8.12911187,7.00703333 7.88911901,7.23835175 7.81011127,7.46287128 L6.68852955,10.4149944 C6.54614368,10.8572346 6.67039918,11.0211893 6.79965616,11.0808163 C6.89320265,11.123558 6.99486473,11.1456283 7.09771307,11.145523 C7.29323965,11.145523 7.44273699,11.0662026 7.48767215,10.9387431 L7.72000649,10.3305163 L9.14980438,10.3305944 L9.38198242,10.9384305 C9.42707388,11.0661245 9.57664937,11.145523 9.77217595,11.145523 Z M10.9356451,11.0832389 L12.4399962,11.0832389 C12.6878039,11.0832389 12.8893479,10.8903694 12.8893479,10.6534243 C12.8893479,10.4164792 12.6878039,10.2236097 12.4399962,10.2236097 L11.4436078,10.2236097 L11.4436078,7.46888868 C11.4436078,7.21029657 11.2288568,7 10.9649506,7 C10.7010444,7 10.4862934,7.21029657 10.4862934,7.46888868 L10.4862934,10.6534243 C10.4862934,10.8903694 10.6878374,11.0832389 10.9356451,11.0832389 Z M13.5406343,11.145523 C13.7995683,11.1451785 14.0093779,10.935334 14.0096793,10.6763998 L14.0096793,9.65336289 L14.1723836,9.49065852 L15.2720057,10.9476519 C15.3603051,11.0655836 15.4992462,11.1347208 15.6465696,11.1340352 C15.7484182,11.1342841 15.8475218,11.1010299 15.9286062,11.0393978 C16.0281359,10.9647736 16.093652,10.8534131 16.110535,10.7301657 C16.1282056,10.6069952 16.0957799,10.4818804 16.0205084,10.3827974 L14.8663389,8.8537514 L15.934858,7.78538854 C16.0083173,7.71185117 16.045125,7.61049306 16.0383261,7.49991348 C16.0316054,7.39027168 15.9826065,7.28469358 15.9004729,7.20263806 C15.8123999,7.11464328 15.6948652,7.0641596 15.5777993,7.0641596 C15.4774571,7.0641596 15.3850079,7.10120181 15.3177224,7.16848733 L14.009523,8.47668675 L14.009523,7.46888868 C14.009523,7.21029657 13.7992264,7 13.5406343,7 C13.2820422,7 13.0717456,7.21029657 13.0717456,7.46888868 L13.0717456,10.6766343 C13.0717456,10.9352264 13.2820422,11.145523 13.5406343,11.145523 Z M8.90324708,9.5000363 L7.96656379,9.5000363 L8.43490544,8.16956467 L8.90324708,9.5000363 L8.90324708,9.5000363 Z"/>
</svg>
