<svg xmlns="http://www.w3.org/2000/svg" width="20" height="20" viewBox="0 0 20 20">
  <path d="M15.4,8.5 C15.4,5.72207207 13.0401351,3.1 10,3.1 C6.93894043,3.1 4.5,5.75102221 4.5,8.5 C4.5,11.5504822 6.39591837,14.3161433 10.7122715,17.155411 L10,18 C5.6,15.2685737 3.4,12.1019071 3.4,8.5 C3.4,5.5 6,2 10,2 C14,2 16.5,5.5 16.5,8.5 C16.5,11.4296433 15.1318241,14.0115654 12.1130208,16.5287916 L11.3220731,15.7322768 C14.1694732,13.446968 15.4,10.9830707 15.4,8.5 Z M10,10.5 C8.8954305,10.5 8,9.6045695 8,8.5 C8,7.3954305 8.8954305,6.5 10,6.5 C11.1045695,6.5 12,7.3954305 12,8.5 C12,9.6045695 11.1045695,10.5 10,10.5 Z M10,9.5 C10.5522847,9.5 11,9.05228475 11,8.5 C11,7.94771525 10.5522847,7.5 10,7.5 C9.44771525,7.5 9,7.94771525 9,8.5 C9,9.05228475 9.44771525,9.5 10,9.5 Z"/>
</svg>
