<svg xmlns="http://www.w3.org/2000/svg" width="20" height="20" viewBox="0 0 20 20">
  <path d="M2.5,5 L7.5,2.5 L12.5,5 L16.0527864,3.2236068 C16.5467649,2.97661755 17.1474379,3.1768419 17.3944272,3.67082039 C17.4638549,3.80967583 17.5,3.96278889 17.5,4.11803399 L17.5,15 L12.5,17.5 L7.5,15 L3.9472136,16.7763932 C3.4532351,17.0233825 2.85256206,16.8231581 2.60557281,16.3291796 C2.53614509,16.1903242 2.5,16.0372111 2.5,15.881966 L2.5,5 Z M13,16.131966 L16.5,14.381966 L16.5,4.11803399 L12.5,6.11803399 L8,3.86803399 L8,11.5 L7,11.5 L7,3.86803399 L3.5,5.61803399 L3.5,15.881966 L7.5,13.881966 L12,16.131966 L12,8.5 L13,8.5 L13,16.131966 Z"/>
</svg>
