<svg xmlns="http://www.w3.org/2000/svg" width="20" height="20" viewBox="0 0 20 20">
  <path d="M18,3 L18,18 L14.8590184,15.5 L2,15.5 L2,3 L18,3 Z M17,16 L17,4 L3,4 L3,14.5 L15.1090184,14.5 L17,16 Z M6.66666667,10.0833333 C6.20642938,10.0833333 5.83333333,9.71023729 5.83333333,9.25 C5.83333333,8.78976271 6.20642938,8.41666667 6.66666667,8.41666667 C7.12690396,8.41666667 7.5,8.78976271 7.5,9.25 C7.5,9.71023729 7.12690396,10.0833333 6.66666667,10.0833333 Z M10,10.0833333 C9.53976271,10.0833333 9.16666667,9.71023729 9.16666667,9.25 C9.16666667,8.78976271 9.53976271,8.41666667 10,8.41666667 C10.4602373,8.41666667 10.8333333,8.78976271 10.8333333,9.25 C10.8333333,9.71023729 10.4602373,10.0833333 10,10.0833333 Z M13.3333333,10.0833333 C12.873096,10.0833333 12.5,9.71023729 12.5,9.25 C12.5,8.78976271 12.873096,8.41666667 13.3333333,8.41666667 C13.7935706,8.41666667 14.1666667,8.78976271 14.1666667,9.25 C14.1666667,9.71023729 13.7935706,10.0833333 13.3333333,10.0833333 Z"/>
</svg>
