<svg xmlns="http://www.w3.org/2000/svg" width="24" height="24" viewBox="0 0 24 24">
  <path fill="#656C76" d="M16,17.9018987 L16,20 L8,20 L8,17.9018987 C5.32211278,16.4710686 3.5,13.6483229 3.5,10.4 C3.5,5.70557963 7.30557963,1.9 12,1.9 C16.6944204,1.9 20.5,5.70557963 20.5,10.4 C20.5,13.6483229 18.6778872,16.4710686 16,17.9018987 Z M14.9,17.2101537 C17.5455427,16.0821488 19.4,13.4576403 19.4,10.4 C19.4,6.31309285 16.0869071,3 12,3 C7.91309285,3 4.6,6.31309285 4.6,10.4 C4.6,13.4576403 6.45445731,16.0821488 9.1,17.2101537 L9.1,18.9 L14.9,18.9 L14.9,17.2101537 Z M12.6,12.1 L12.6,16 L11.4,16 L11.4,12.1 L10,12.1 L10,11 L14,11 L14,12.1 L12.6,12.1 Z M9,20.9 L15,20.9 L15,22 L9,22 L9,20.9 Z"/>
</svg>
