<svg xmlns="http://www.w3.org/2000/svg" width="24" height="24" viewBox="0 0 24 24">
  <path fill="#656C76" d="M12.0111571,20.3451452 L12.0068813,20.349421 L2.99126984,11.3338095 C1.27296295,9.61550263 1.27296295,6.82957672 2.99126984,5.11126984 C4.70957672,3.39296295 7.49550263,3.39296295 9.21380951,5.11126984 L10.86193,6.75939033 L10.0841125,7.53720779 L8.43599205,5.8890873 C7.14726189,4.60035713 5.05781746,4.60035713 3.7690873,5.8890873 C2.48035713,7.17781746 2.48035713,9.26726189 3.7690873,10.5559921 L6.56643488,13.3533396 L14.8085047,5.11126984 C16.5268116,3.39296295 19.3127375,3.39296295 21.0310444,5.11126984 C22.7493512,6.82957672 22.7493512,9.61550263 21.0310444,11.3338095 L12.0154329,20.349421 L12.0111571,20.3451452 Z M16.0939493,14.7152696 L20.2532269,10.5559921 C21.5419571,9.26726189 21.5419571,7.17781746 20.2532269,5.8890873 C18.9644967,4.60035713 16.8750523,4.60035713 15.5863221,5.8890873 L7.34852814,14.1268813 L12.0111571,18.7895103 L16.0896735,14.7109938 L16.0939493,14.7152696 Z"/>
</svg>
