<svg xmlns="http://www.w3.org/2000/svg" width="24" height="24" viewBox="0 0 24 24">
  <path fill="#656C76" d="M10,18 C5.581722,18 2,14.418278 2,10 C2,5.581722 5.581722,2 10,2 C14.418278,2 18,5.581722 18,10 C18,14.418278 14.418278,18 10,18 Z M10,16.8 C13.7555363,16.8 16.8,13.7555363 16.8,10 C16.8,6.2444637 13.7555363,3.2 10,3.2 C6.2444637,3.2 3.2,6.2444637 3.2,10 C3.2,13.7555363 6.2444637,16.8 10,16.8 Z M16.8485281,16 L21.0911688,20.2426407 L20.2426407,21.0911688 L16,16.8485281 L16.8485281,16 Z"/>
</svg>
