<svg xmlns="http://www.w3.org/2000/svg" width="20" height="20" viewBox="0 0 20 20">
  <path d="M3.20563019,4.56964504 L5.53414919,2.24112604 C5.85565058,1.91962465 6.37690731,1.91962465 6.69840869,2.24112604 L9.60905745,5.15177479 C9.93055883,5.47327618 9.93055883,5.99453291 9.60905745,6.31603429 L8.44479795,7.4802938 C8.12329656,7.80179518 8.12329656,8.32305191 8.44479795,8.6445533 L11.3554467,11.5552021 C11.6769481,11.8767034 12.1982048,11.8767034 12.5197062,11.5552021 L13.6839657,10.3909426 C14.0054671,10.0694412 14.5267238,10.0694412 14.8482252,10.3909426 L17.758874,13.3015913 C18.0803753,13.6230927 18.0803753,14.1443494 17.758874,14.4658508 L15.430355,16.7943698 C13.822848,18.4018767 11.2165644,18.4018767 9.60905745,16.7943698 L3.20563019,10.3909426 C1.59812327,8.78343563 1.59812327,6.17715196 3.20563019,4.56964504 Z"/>
</svg>
