<svg xmlns="http://www.w3.org/2000/svg" width="20" height="20" viewBox="0 0 20 20">
  <path d="M10,18 C5.581722,18 2,14.418278 2,10 C2,5.581722 5.581722,2 10,2 C14.418278,2 18,5.581722 18,10 C18,14.418278 14.418278,18 10,18 Z M12.67,7.47990061 C12.67,6.80210818 12.4462861,6.21771276 12.0029198,5.75624988 C11.5123553,5.24751506 10.8228491,5 9.96754421,5 C9.16171308,5 8.47072821,5.26677264 7.92448161,5.79567808 C7.40880995,6.30258818 7.13059582,6.93409012 7.09610832,7.66694934 L7.07,8.22175122 L8.87125815,8.22175122 L8.90641101,7.72961126 C8.92530059,7.46515713 9.02281232,7.25683661 9.20913415,7.07983087 C9.41070132,6.88764014 9.67458648,6.79103933 10.0311314,6.79103933 C10.3662359,6.79103933 10.5806544,6.86958868 10.7113408,7.01180627 C10.7616493,7.06898572 10.7979844,7.13213973 10.8176102,7.19592329 C10.8435942,7.28037133 10.8577649,7.38547126 10.8577649,7.51169421 C10.8577649,7.59176491 10.8242831,7.70438557 10.7467293,7.84774268 C10.6659381,7.997084 10.4644841,8.22241399 10.1468486,8.50268058 C9.44885694,9.14168359 9.08792134,9.87660065 9.08792134,10.691054 L9.08792134,11.2209473 L10.9213521,11.2209473 L10.9213521,10.691054 C10.9213521,10.4054133 11.0213933,10.1505467 11.2353546,9.90601949 C11.3504712,9.77889423 11.4795011,9.65145729 11.6166769,9.53023214 C11.7897036,9.37732488 11.9505249,9.21047274 12.0990005,9.02989434 C12.2619061,8.83176586 12.3956756,8.61027866 12.4999811,8.36689922 C12.6143405,8.10006061 12.67,7.80320998 12.67,7.47990061 Z M10.1,13.02 C9.49248678,13.02 9,13.5124868 9,14.12 C9,14.7275132 9.49248678,15.22 10.1,15.22 C10.7075132,15.22 11.2,14.7275132 11.2,14.12 C11.2,13.5124868 10.7075132,13.02 10.1,13.02 Z"/>
</svg>
