<svg xmlns="http://www.w3.org/2000/svg" width="20" height="20" viewBox="0 0 20 20">
  <path d="M13.9464688,15.1652461 C13.5053691,15.5027762 13.0197706,15.785082 12.5,16.0018367 L12.5,17 C12.5,17.5522847 12.0522847,18 11.5,18 L8.5,18 C7.94771525,18 7.5,17.5522847 7.5,17 L7.5,16.0018367 C6.98022942,15.785082 6.49463085,15.5027762 6.05353125,15.1652461 L5.18782217,15.6650635 C4.70952955,15.9412059 4.09793914,15.7773307 3.82179677,15.2990381 L2.32179677,12.7009619 C2.04565439,12.2226693 2.20952955,11.6110789 2.68782217,11.3349365 L3.55317583,10.8353243 C3.51808965,10.5618367 3.5,10.2830309 3.5,10 C3.5,9.71696912 3.51808965,9.43816331 3.55317583,9.16467567 L2.68782217,8.66506351 C2.20952955,8.38892113 2.04565439,7.77733073 2.32179677,7.29903811 L3.82179677,4.70096189 C4.09793914,4.22266927 4.70952955,4.05879412 5.18782217,4.33493649 L6.05353125,4.83475386 C6.49463085,4.49722383 6.98022942,4.21491802 7.5,3.99816335 L7.5,3 C7.5,2.44771525 7.94771525,2 8.5,2 L11.5,2 C12.0522847,2 12.5,2.44771525 12.5,3 L12.5,3.99816335 C13.0197706,4.21491802 13.5053691,4.49722383 13.9464688,4.83475386 L14.8121778,4.33493649 C15.2904704,4.05879412 15.9020609,4.22266927 16.1782032,4.70096189 L17.6782032,7.29903811 C17.9543456,7.77733073 17.7904704,8.38892113 17.3121778,8.66506351 L16.4468242,9.16467567 C16.4819104,9.43816331 16.5,9.71696912 16.5,10 C16.5,10.2830309 16.4819104,10.5618367 16.4468242,10.8353243 L17.3121778,11.3349365 C17.7904704,11.6110789 17.9543456,12.2226693 17.6782032,12.7009619 L16.1782032,15.2990381 C15.9020609,15.7773307 15.2904704,15.9412059 14.8121778,15.6650635 L13.9464688,15.1652461 Z M15.3121778,14.7990381 L16.8121778,12.2009619 L15.3702323,11.3684542 L15.4549533,10.7080756 C15.4848841,10.4747731 15.5,10.2384584 15.5,10 C15.5,9.76154163 15.4848841,9.52522692 15.4549533,9.29192442 L15.3702323,8.63154576 L16.8121778,7.79903811 L15.3121778,5.20096189 L13.8686475,6.0343845 L13.3387704,5.62892177 C12.9629504,5.34134384 12.5517709,5.10322207 12.1151069,4.92112449 L11.5,4.6646127 L11.5,3 L8.5,3 L8.5,4.6646127 L7.88489315,4.92112449 C7.44822911,5.10322207 7.03704956,5.34134384 6.66122963,5.62892177 L6.13135248,6.0343845 L4.68782217,5.20096189 L3.18782217,7.79903811 L4.62976773,8.63154576 L4.54504666,9.29192442 C4.5151159,9.52522692 4.5,9.76154163 4.5,10 C4.5,10.2384584 4.5151159,10.4747731 4.54504666,10.7080756 L4.62976773,11.3684542 L3.18782217,12.2009619 L4.68782217,14.7990381 L6.13135248,13.9656155 L6.66122963,14.3710782 C7.03704956,14.6586562 7.44822911,14.8967779 7.88489315,15.0788755 L8.5,15.3353873 L8.5,17 L11.5,17 L11.5,15.3353873 L12.1151069,15.0788755 C12.5517709,14.8967779 12.9629504,14.6586562 13.3387704,14.3710782 L13.8686475,13.9656155 L15.3121778,14.7990381 Z M10,12 C8.8954305,12 8,11.1045695 8,10 C8,8.8954305 8.8954305,8 10,8 C11.1045695,8 12,8.8954305 12,10 C12,11.1045695 11.1045695,12 10,12 Z M10,11 C10.5522847,11 11,10.5522847 11,10 C11,9.44771525 10.5522847,9 10,9 C9.44771525,9 9,9.44771525 9,10 C9,10.5522847 9.44771525,11 10,11 Z"/>
</svg>
